<svg id="Layer_1" data-name="Layer 1" xmlns="http://www.w3.org/2000/svg" viewBox="0 0 400 300" width="406" height="306" class="illustration styles_illustrationTablet__1DWOa"><title>_</title><ellipse cx="198.34" cy="256.18" rx="125.38" ry="19.65" fill="#e6e6e6" opacity="0.45"></ellipse><rect x="244.87" y="34.51" width="26.18" height="4.14" fill="#e6e6e6"></rect><rect x="251.25" y="30.35" width="19.8" height="4.14" fill="#c9c9c9"></rect><rect x="175.49" y="38.67" width="119.7" height="214.67" fill="#c9c9c9"></rect><rect x="185.39" y="63.14" width="99.08" height="151.08" fill="#fff"></rect><circle cx="235.7" cy="233.57" r="11.71" fill="#fff" opacity="0.56"></circle><rect x="225.21" y="47.06" width="33.56" height="4.89" opacity="0.12"></rect><circle cx="213.06" cy="50.04" r="5.47" fill="#fff"></circle><path d="M268.83,29.4s-7.32-2-8.91-8.81c0,0,11.34-2.29,11.66,9.41Z" fill="#68e1fd" opacity="0.58"></path><path d="M269.73,28.67s-5.11-8.08-.61-15.64c0,0,8.62,5.48,4.79,15.66Z" fill="#68e1fd" opacity="0.73"></path><path d="M271.05,28.68s2.7-8.54,10.86-10.16c0,0,1.53,5.55-5.28,10.18Z" fill="#68e1fd"></path><polygon points="265.74 28.48 267.22 38.63 276.56 38.67 277.94 28.54 265.74 28.48" fill="#24285b"></polygon><polygon points="274.89 99.64 274.74 99.56 274.74 99.41 274.49 99.41 237.68 77.69 233.73 77.69 196.92 99.41 196.66 99.41 196.66 99.56 196.52 99.64 196.66 99.64 196.66 143.38 274.74 143.38 274.74 99.64 274.89 99.64" fill="#24285b"></polygon><rect x="205.9" y="82.5" width="59.61" height="55.44" fill="#ffd200"></rect><polygon points="274.89 99.41 274.89 143.31 196.52 143.31 196.52 99.41 196.62 99.41 233.73 121.3 237.68 121.3 274.78 99.41 274.89 99.41" fill="#68e1fd"></polygon><polygon points="233.73 121.36 237.68 121.36 274.89 143.31 196.52 143.31 233.73 121.36" fill="#fff" opacity="0.46"></polygon><rect x="196.52" y="153.94" width="56.34" height="9.48" fill="#e6e6e6"></rect><rect x="261.79" y="153.94" width="12.26" height="9.48" fill="#e6e6e6"></rect><rect x="196.52" y="172.49" width="33.36" height="9.48" fill="#e6e6e6"></rect><rect x="239.58" y="172.49" width="34.47" height="9.48" fill="#e6e6e6"></rect><rect x="196.52" y="191.03" width="61.44" height="9.48" fill="#e6e6e6"></rect><path d="M178.66,98.78c-.06-.23-1.11-4.18-2.5-4.58s-4.64-.69-4.35,1,3.48,5.74,3.48,5.74Z" fill="#f4a28c"></path><path d="M144,100.61s29.79,16.87,32.57,14.24-2.32-14.69-2.32-14.69l4.49-2s19.64,23,10.36,28.47-42.54-4.17-42.54-4.17Z" fill="#68e1fd"></path><path d="M144,100.61s29.79,16.87,32.57,14.24-2.32-14.69-2.32-14.69l4.49-2s19.64,23,10.36,28.47-42.54-4.17-42.54-4.17Z" fill="#fff" opacity="0.44"></path><polygon points="122.68 187.89 142.32 250.86 146.89 250.86 142.63 185.97 122.68 187.89" fill="#f4a28c"></polygon><path d="M106.87,180.24l3.95,25.69-17-13.41-3.27,3.82s16.78,27.43,30.29,24.29,5-44.83,5-44.83Z" fill="#f4a28c"></path><polygon points="134.77 78.67 131.98 100.07 143.88 100.77 141.13 84.92 134.77 78.67" fill="#f4a28c"></polygon><path d="M141.88,88.36A7.78,7.78,0,0,1,138,86.17s.28,3.94,4.73,7.72Z" fill="#ce8172" opacity="0.31"></path><path d="M146.81,77.51s.38,6.57-.85,10.9a3.3,3.3,0,0,1-4.1,2.27c-2.17-.66-4.92-2.17-5.55-5.66l-1.8-5.81A5.91,5.91,0,0,1,137.3,73C141.08,70.41,146.78,73.49,146.81,77.51Z" fill="#f4a28c"></path><path d="M139.65,82.94s0-2.54-1.88-2.4-2,3.81.61,4.22Z" fill="#f4a28c"></path><path d="M146.84,81.66l1.76,2.59a1.05,1.05,0,0,1-.71,1.63l-2.53.41Z" fill="#f4a28c"></path><path d="M141.23,98.67s28,12.45,19.12,31.73c-6.46,14-13.83,10.92-16.38,22.2l-2.64,11.1-28.65-10.37s4.36-16.22,3.09-27.22S110.29,87.68,141.23,98.67Z" fill="#68e1fd"></path><path d="M133.2,104.56s10.23,16.23-.49,31.58c-1.82,2.61-3.44,5.34-5,8.1l-6.9,12-8.11-2.93,1.53-6.83Z" opacity="0.09"></path><path d="M137.77,80.54s6.88,19.82.34,23.17-17.77,2-18.82-6.37,7.17-10,7.85-21.55,22.87-9.57,22.75-2.9S137.77,80.54,137.77,80.54Z" fill="#ffd200"></path><path d="M128.66,96.79a8.76,8.76,0,0,0-11.77.75c-2.24,2.38-4.14,6.5-3.56,13.6,1.27,15.65-3.64,34.22-18.2,24.39s-15.28-13.11-15.28-13.11l-5.1,5.69s14,25.24,32,22C123,147.12,143,107.71,128.66,96.79Z" fill="#68e1fd"></path><path d="M128.66,96.79a8.76,8.76,0,0,0-11.77.75c-2.24,2.38-4.14,6.5-3.56,13.6,1.27,15.65-3.64,34.22-18.2,24.39s-15.28-13.11-15.28-13.11l-5.1,5.69s14,25.24,32,22C123,147.12,143,107.71,128.66,96.79Z" fill="#fff" opacity="0.44"></path><path d="M112.68,153.33l28.65,10.37,3.48,34.57-39-2.73S97.21,169.25,112.68,153.33Z" fill="#24285b"></path><path d="M78.41,124a6.6,6.6,0,0,0-7.18-3c-4.91,1.09-6.12,7.68,3.52,7.06Z" fill="#f4a28c"></path><path d="M146.55,250.86s2.52,3.2,5.75,3,3.7,4.4-1.49,3.93A28.91,28.91,0,0,1,146,257a8.46,8.46,0,0,0-4.38.15,1.39,1.39,0,0,1-1.48-.59c-1.47-1.73,2.15-5.71,2.15-5.71Z" fill="#68e1fd"></path><path d="M90.9,196.45s-4.07-.09-6,2.49-5.75.05-2.08-3.65a28.11,28.11,0,0,1,3.68-3.16,8.46,8.46,0,0,0,2.67-3.47,1.38,1.38,0,0,1,1.4-.77c2.27,0,3.2,4.63,3.2,4.63Z" fill="#68e1fd"></path><polygon points="199.76 88.81 159.68 90.42 157.55 82.98 192.42 63.14 199.76 88.81" fill="#24285b"></polygon><rect x="170.09" y="86.83" width="4.02" height="14.73" transform="translate(-24.09 94.61) rotate(-28.81)" fill="#24285b"></rect><path d="M171.94,95a2.84,2.84,0,0,0,.35,2.2,2.89,2.89,0,0,0,1.86,1.24,3.32,3.32,0,0,0,1.33,0,2.22,2.22,0,0,0,1.2-.67c.87-1,.08-2.37-.66-3.22a2.36,2.36,0,0,0-2.32-.72C172.88,93.87,172.17,94.1,171.94,95Z" fill="#f4a28c"></path></svg>